<?xml version="1.0" encoding="utf-8"?>
<!-- Generator: Adobe Illustrator 26.1.0, SVG Export Plug-In . SVG Version: 6.00 Build 0)  -->
<svg version="1.1" id="Ebene_1" xmlns="http://www.w3.org/2000/svg" xmlns:xlink="http://www.w3.org/1999/xlink" x="0px" y="0px"
	 width="32px" height="32px" viewBox="0 0 32 32" style="enable-background:new 0 0 32 32;" xml:space="preserve">
<style type="text/css">
	.st0{fill:none;}
	.st1{fill:#BAE1FF;stroke:#161616;stroke-width:0.75;stroke-linecap:round;stroke-linejoin:round;stroke-miterlimit:10;}
	.st2{fill:none;stroke:#161616;stroke-width:0.75;stroke-linecap:round;stroke-linejoin:round;stroke-miterlimit:10;}
</style>
<g id="Ebene_2_00000105401218227732063160000000884089218063317142_">
	<rect class="st0" width="32" height="32"/>
	<g>
		<g>
			<g>
				<path id="SVGID_799_" class="st1" d="M4.8,12.3c0,0-0.8,0-0.8,0.6V19c0,0,0,0.7,0.8,0.7h4.4c0,0,0.8,0,0.8-0.7v-6.1
					c0,0,0-0.6-0.8-0.6C9.2,12.3,4.8,12.3,4.8,12.3z"/>
			</g>
		</g>
	</g>
	<path class="st2" d="M21.1,8.7c0.1,0.1,2.4,2.4,2.4,7.3s-2.3,7.2-2.4,7.3"/>
	<path class="st2" d="M23.8,6.6c0.1,0.1,3.1,3.2,3.1,9.4s-3,9.3-3.1,9.4"/>
	<path class="st1" d="M10,12.5c0,0,0-0.4,0.3-0.6l6.5-4.2c0,0,0.3-0.2,0.3,0.2v16.3c0,0,0,0.4-0.3,0.2l-6.5-4.2c0,0-0.3-0.2-0.3-0.6
		L10,12.5z"/>
	<rect class="st0" width="32" height="32"/>
	<g>
		<g>
			<g>
				<path id="SVGID_791_" class="st1" d="M4.8,12.3c0,0-0.8,0-0.8,0.6V19c0,0,0,0.7,0.8,0.7h4.4c0,0,0.8,0,0.8-0.7v-6.1
					c0,0,0-0.6-0.8-0.6C9.2,12.3,4.8,12.3,4.8,12.3z"/>
			</g>
		</g>
	</g>
	<path class="st2" d="M21.1,8.7c0.1,0.1,2.4,2.4,2.4,7.3s-2.3,7.2-2.4,7.3"/>
	<path class="st2" d="M23.8,6.6c0.1,0.1,3.1,3.2,3.1,9.4s-3,9.3-3.1,9.4"/>
	<path class="st1" d="M10,12.5c0,0,0-0.4,0.3-0.6l6.5-4.2c0,0,0.3-0.2,0.3,0.2v16.3c0,0,0,0.4-0.3,0.2l-6.5-4.2c0,0-0.3-0.2-0.3-0.6
		L10,12.5z"/>
</g>
<g id="Layer_1">
</g>
</svg>
